<mxfile host="65bd71144e">
    <diagram id="nQcUk1bQTkJzepOr1JR_" name="Page-1">
        <mxGraphModel dx="668" dy="627" grid="1" gridSize="10" guides="1" tooltips="1" connect="1" arrows="1" fold="1" page="1" pageScale="1" pageWidth="827" pageHeight="1169" math="0" shadow="0">
            <root>
                <mxCell id="0"/>
                <mxCell id="1" parent="0"/>
                <mxCell id="2" value="User" style="whiteSpace=wrap;html=1;align=center;" parent="1" vertex="1">
                    <mxGeometry x="160" y="150" width="100" height="40" as="geometry"/>
                </mxCell>
                <mxCell id="3" value="Customer" style="whiteSpace=wrap;html=1;align=center;" parent="1" vertex="1">
                    <mxGeometry x="20" y="360" width="100" height="40" as="geometry"/>
                </mxCell>
                <mxCell id="4" value="Waitor" style="whiteSpace=wrap;html=1;align=center;" parent="1" vertex="1">
                    <mxGeometry x="160" y="360" width="100" height="40" as="geometry"/>
                </mxCell>
                <mxCell id="5" value="Kitchen" style="whiteSpace=wrap;html=1;align=center;" parent="1" vertex="1">
                    <mxGeometry x="290" y="360" width="100" height="40" as="geometry"/>
                </mxCell>
                <mxCell id="6" value="ISA&lt;br&gt;Disjoint" style="triangle;whiteSpace=wrap;html=1;rotation=90;align=center;verticalAlign=top;horizontal=0;" parent="1" vertex="1">
                    <mxGeometry x="184.84" y="194.85" width="50.31" height="104.38" as="geometry"/>
                </mxCell>
                <mxCell id="8" value="" style="endArrow=none;html=1;rounded=0;strokeColor=default;exitX=0.5;exitY=1;exitDx=0;exitDy=0;entryX=0;entryY=0.5;entryDx=0;entryDy=0;shape=link;" parent="1" source="2" target="6" edge="1">
                    <mxGeometry relative="1" as="geometry">
                        <mxPoint x="310" y="200" as="sourcePoint"/>
                        <mxPoint x="470" y="200" as="targetPoint"/>
                    </mxGeometry>
                </mxCell>
                <mxCell id="9" value="" style="endArrow=none;html=1;rounded=0;strokeColor=default;entryX=0.5;entryY=1;entryDx=0;entryDy=0;exitX=0.5;exitY=0;exitDx=0;exitDy=0;" parent="1" source="3" target="6" edge="1">
                    <mxGeometry relative="1" as="geometry">
                        <mxPoint x="70" y="300" as="sourcePoint"/>
                        <mxPoint x="230" y="300" as="targetPoint"/>
                    </mxGeometry>
                </mxCell>
                <mxCell id="10" value="" style="endArrow=none;html=1;rounded=0;strokeColor=default;exitX=1;exitY=0.5;exitDx=0;exitDy=0;" parent="1" source="6" target="4" edge="1">
                    <mxGeometry relative="1" as="geometry">
                        <mxPoint x="210" y="280" as="sourcePoint"/>
                        <mxPoint x="370" y="280" as="targetPoint"/>
                    </mxGeometry>
                </mxCell>
                <mxCell id="11" value="" style="endArrow=none;html=1;rounded=0;strokeColor=default;entryX=0.41;entryY=-0.05;entryDx=0;entryDy=0;entryPerimeter=0;exitX=0.5;exitY=0;exitDx=0;exitDy=0;" parent="1" source="6" target="5" edge="1">
                    <mxGeometry relative="1" as="geometry">
                        <mxPoint x="250" y="240" as="sourcePoint"/>
                        <mxPoint x="410" y="240" as="targetPoint"/>
                    </mxGeometry>
                </mxCell>
                <mxCell id="12" value="username" style="ellipse;whiteSpace=wrap;html=1;align=center;fontStyle=4;" parent="1" vertex="1">
                    <mxGeometry x="70" y="80" width="100" height="40" as="geometry"/>
                </mxCell>
                <mxCell id="13" value="" style="endArrow=none;html=1;rounded=0;strokeColor=default;exitX=0.5;exitY=1;exitDx=0;exitDy=0;entryX=0;entryY=0.25;entryDx=0;entryDy=0;" parent="1" source="12" target="2" edge="1">
                    <mxGeometry relative="1" as="geometry">
                        <mxPoint x="60" y="170" as="sourcePoint"/>
                        <mxPoint x="220" y="170" as="targetPoint"/>
                    </mxGeometry>
                </mxCell>
                <mxCell id="14" value="password" style="ellipse;whiteSpace=wrap;html=1;align=center;" parent="1" vertex="1">
                    <mxGeometry x="180" y="80" width="100" height="40" as="geometry"/>
                </mxCell>
                <mxCell id="16" value="" style="endArrow=none;html=1;rounded=0;strokeColor=default;exitX=0.5;exitY=1;exitDx=0;exitDy=0;entryX=0.25;entryY=0;entryDx=0;entryDy=0;" parent="1" source="14" target="2" edge="1">
                    <mxGeometry relative="1" as="geometry">
                        <mxPoint x="280" y="120" as="sourcePoint"/>
                        <mxPoint x="440" y="120" as="targetPoint"/>
                    </mxGeometry>
                </mxCell>
                <mxCell id="20" value="" style="endArrow=none;html=1;rounded=0;strokeColor=default;entryX=0.5;entryY=0;entryDx=0;entryDy=0;exitX=1;exitY=1;exitDx=0;exitDy=0;" parent="1" source="130" edge="1">
                    <mxGeometry relative="1" as="geometry">
                        <mxPoint x="416.9526848211683" y="116.84542801323016" as="sourcePoint"/>
                        <mxPoint x="470" y="150" as="targetPoint"/>
                    </mxGeometry>
                </mxCell>
                <mxCell id="21" value="Session" style="shape=ext;margin=3;double=1;whiteSpace=wrap;html=1;align=center;" parent="1" vertex="1">
                    <mxGeometry x="434" y="150" width="100" height="40" as="geometry"/>
                </mxCell>
                <mxCell id="22" value="valid_until" style="ellipse;whiteSpace=wrap;html=1;align=center;" parent="1" vertex="1">
                    <mxGeometry x="470" y="80" width="100" height="40" as="geometry"/>
                </mxCell>
                <mxCell id="23" value="" style="endArrow=none;html=1;rounded=0;strokeColor=default;entryX=0.5;entryY=1;entryDx=0;entryDy=0;exitX=0.66;exitY=0;exitDx=0;exitDy=0;exitPerimeter=0;" parent="1" source="21" target="22" edge="1">
                    <mxGeometry relative="1" as="geometry">
                        <mxPoint x="310" y="230" as="sourcePoint"/>
                        <mxPoint x="470" y="230" as="targetPoint"/>
                    </mxGeometry>
                </mxCell>
                <mxCell id="24" value="&lt;div style=&quot;text-align: start;&quot;&gt;MenuItem&lt;/div&gt;" style="whiteSpace=wrap;html=1;align=center;" parent="1" vertex="1">
                    <mxGeometry x="851" y="170" width="100" height="40" as="geometry"/>
                </mxCell>
                <mxCell id="26" value="" style="edgeStyle=none;rounded=1;html=1;strokeColor=default;endArrow=none;endFill=0;" parent="1" source="25" target="24" edge="1">
                    <mxGeometry relative="1" as="geometry"/>
                </mxCell>
                <mxCell id="25" value="id" style="ellipse;whiteSpace=wrap;html=1;align=center;fontStyle=4;" parent="1" vertex="1">
                    <mxGeometry x="781" y="80" width="100" height="40" as="geometry"/>
                </mxCell>
                <mxCell id="28" value="name" style="ellipse;whiteSpace=wrap;html=1;align=center;" parent="1" vertex="1">
                    <mxGeometry x="891" y="80" width="100" height="40" as="geometry"/>
                </mxCell>
                <mxCell id="35" value="" style="endArrow=none;html=1;rounded=0;strokeColor=default;entryX=0.41;entryY=0.975;entryDx=0;entryDy=0;entryPerimeter=0;" parent="1" target="28" edge="1">
                    <mxGeometry relative="1" as="geometry">
                        <mxPoint x="911" y="170" as="sourcePoint"/>
                        <mxPoint x="1071" y="170" as="targetPoint"/>
                    </mxGeometry>
                </mxCell>
                <mxCell id="39" value="price" style="ellipse;whiteSpace=wrap;html=1;align=center;" parent="1" vertex="1">
                    <mxGeometry x="690" y="110" width="100" height="40" as="geometry"/>
                </mxCell>
                <mxCell id="40" value="calorie" style="ellipse;whiteSpace=wrap;html=1;align=center;" parent="1" vertex="1">
                    <mxGeometry x="1000" y="80" width="100" height="40" as="geometry"/>
                </mxCell>
                <mxCell id="46" value="" style="endArrow=none;html=1;rounded=0;strokeColor=default;exitX=1;exitY=1;exitDx=0;exitDy=0;entryX=0;entryY=0.25;entryDx=0;entryDy=0;" parent="1" source="39" target="24" edge="1">
                    <mxGeometry relative="1" as="geometry">
                        <mxPoint x="781.63" y="184.08" as="sourcePoint"/>
                        <mxPoint x="850" y="180" as="targetPoint"/>
                    </mxGeometry>
                </mxCell>
                <mxCell id="47" value="" style="endArrow=none;html=1;rounded=0;strokeColor=default;exitX=0.75;exitY=0;exitDx=0;exitDy=0;entryX=0.33;entryY=1.025;entryDx=0;entryDy=0;entryPerimeter=0;" parent="1" source="24" target="40" edge="1">
                    <mxGeometry relative="1" as="geometry">
                        <mxPoint x="931" y="270" as="sourcePoint"/>
                        <mxPoint x="1091" y="270" as="targetPoint"/>
                    </mxGeometry>
                </mxCell>
                <mxCell id="48" value="FoodItem" style="whiteSpace=wrap;html=1;align=center;" parent="1" vertex="1">
                    <mxGeometry x="751" y="320" width="100" height="40" as="geometry"/>
                </mxCell>
                <mxCell id="49" value="ISA&lt;br&gt;Disjoint" style="triangle;whiteSpace=wrap;html=1;rotation=90;align=center;horizontal=0;" parent="1" vertex="1">
                    <mxGeometry x="879.37" y="187.24" width="43.65" height="132.95" as="geometry"/>
                </mxCell>
                <mxCell id="50" value="" style="endArrow=none;html=1;rounded=0;strokeColor=default;shape=link;" parent="1" source="24" edge="1">
                    <mxGeometry relative="1" as="geometry">
                        <mxPoint x="741" y="280" as="sourcePoint"/>
                        <mxPoint x="901" y="230" as="targetPoint"/>
                    </mxGeometry>
                </mxCell>
                <mxCell id="51" value="DrinkItem" style="whiteSpace=wrap;html=1;align=center;" parent="1" vertex="1">
                    <mxGeometry x="931" y="320" width="100" height="40" as="geometry"/>
                </mxCell>
                <mxCell id="52" value="description" style="ellipse;whiteSpace=wrap;html=1;align=center;" parent="1" vertex="1">
                    <mxGeometry x="1011" y="140" width="100" height="40" as="geometry"/>
                </mxCell>
                <mxCell id="53" value="" style="endArrow=none;html=1;rounded=0;strokeColor=default;entryX=0;entryY=0.5;entryDx=0;entryDy=0;" parent="1" target="52" edge="1">
                    <mxGeometry relative="1" as="geometry">
                        <mxPoint x="951" y="190" as="sourcePoint"/>
                        <mxPoint x="1111" y="190" as="targetPoint"/>
                    </mxGeometry>
                </mxCell>
                <mxCell id="61" value="" style="endArrow=none;html=1;rounded=0;strokeColor=default;entryX=0.5;entryY=1;entryDx=0;entryDy=0;exitX=0.5;exitY=0;exitDx=0;exitDy=0;" parent="1" source="48" target="49" edge="1">
                    <mxGeometry relative="1" as="geometry">
                        <mxPoint x="761" y="280" as="sourcePoint"/>
                        <mxPoint x="921" y="280" as="targetPoint"/>
                    </mxGeometry>
                </mxCell>
                <mxCell id="62" value="" style="endArrow=none;html=1;rounded=0;strokeColor=default;entryX=0.5;entryY=0;entryDx=0;entryDy=0;exitX=0.5;exitY=0;exitDx=0;exitDy=0;" parent="1" source="49" target="51" edge="1">
                    <mxGeometry relative="1" as="geometry">
                        <mxPoint x="931" y="250" as="sourcePoint"/>
                        <mxPoint x="1091" y="250" as="targetPoint"/>
                    </mxGeometry>
                </mxCell>
                <mxCell id="63" value="Has" style="shape=rhombus;double=1;perimeter=rhombusPerimeter;whiteSpace=wrap;html=1;align=center;" parent="1" vertex="1">
                    <mxGeometry x="280" y="140" width="120" height="60" as="geometry"/>
                </mxCell>
                <mxCell id="71" value="Allergen" style="whiteSpace=wrap;html=1;align=center;" parent="1" vertex="1">
                    <mxGeometry x="1140" y="217.04000000000002" width="100" height="40" as="geometry"/>
                </mxCell>
                <mxCell id="73" style="edgeStyle=none;rounded=1;html=1;exitX=0.5;exitY=1;exitDx=0;exitDy=0;strokeColor=default;endArrow=none;endFill=0;entryX=0.5;entryY=0;entryDx=0;entryDy=0;" parent="1" source="72" target="71" edge="1">
                    <mxGeometry relative="1" as="geometry">
                        <mxPoint x="1170" y="260" as="targetPoint"/>
                    </mxGeometry>
                </mxCell>
                <mxCell id="72" value="id" style="ellipse;whiteSpace=wrap;html=1;align=center;fontStyle=4;" parent="1" vertex="1">
                    <mxGeometry x="1140" y="160" width="100" height="40" as="geometry"/>
                </mxCell>
                <mxCell id="78" value="Has" style="shape=rhombus;perimeter=rhombusPerimeter;whiteSpace=wrap;html=1;align=center;rotation=0;" parent="1" vertex="1">
                    <mxGeometry x="991" y="199.99999999999997" width="108.33" height="50" as="geometry"/>
                </mxCell>
                <mxCell id="96" value="" style="edgeStyle=none;rounded=1;html=1;strokeColor=default;endArrow=none;endFill=0;" parent="1" source="84" target="95" edge="1">
                    <mxGeometry relative="1" as="geometry"/>
                </mxCell>
                <mxCell id="84" value="FoodCategory" style="whiteSpace=wrap;html=1;align=center;" parent="1" vertex="1">
                    <mxGeometry x="751" y="480" width="100" height="40" as="geometry"/>
                </mxCell>
                <mxCell id="85" value="Belongs to" style="shape=rhombus;perimeter=rhombusPerimeter;whiteSpace=wrap;html=1;align=center;" parent="1" vertex="1">
                    <mxGeometry x="741" y="390" width="120" height="60" as="geometry"/>
                </mxCell>
                <mxCell id="91" value="Belongs to" style="shape=rhombus;perimeter=rhombusPerimeter;whiteSpace=wrap;html=1;align=center;" parent="1" vertex="1">
                    <mxGeometry x="921" y="390" width="120" height="60" as="geometry"/>
                </mxCell>
                <mxCell id="97" value="" style="edgeStyle=none;rounded=1;html=1;strokeColor=default;endArrow=none;endFill=0;" parent="1" source="93" target="95" edge="1">
                    <mxGeometry relative="1" as="geometry"/>
                </mxCell>
                <mxCell id="93" value="DrinkCategory" style="whiteSpace=wrap;html=1;align=center;" parent="1" vertex="1">
                    <mxGeometry x="931" y="480" width="100" height="40" as="geometry"/>
                </mxCell>
                <mxCell id="95" value="ISA&lt;br&gt;Disjoint" style="triangle;whiteSpace=wrap;html=1;rotation=90;align=center;horizontal=0;direction=west;" parent="1" vertex="1">
                    <mxGeometry x="879.37" y="510" width="43.65" height="132.95" as="geometry"/>
                </mxCell>
                <mxCell id="99" value="" style="edgeStyle=none;rounded=1;html=1;strokeColor=default;endArrow=none;endFill=0;shape=link;" parent="1" source="98" edge="1">
                    <mxGeometry relative="1" as="geometry">
                        <mxPoint x="901" y="600" as="targetPoint"/>
                    </mxGeometry>
                </mxCell>
                <mxCell id="98" value="MenuCategory" style="whiteSpace=wrap;html=1;align=center;" parent="1" vertex="1">
                    <mxGeometry x="851.19" y="630" width="100" height="40" as="geometry"/>
                </mxCell>
                <mxCell id="101" style="edgeStyle=none;rounded=1;html=1;entryX=0.323;entryY=1;entryDx=0;entryDy=0;entryPerimeter=0;strokeColor=default;endArrow=none;endFill=0;" parent="1" source="100" target="98" edge="1">
                    <mxGeometry relative="1" as="geometry"/>
                </mxCell>
                <mxCell id="100" value="id" style="ellipse;whiteSpace=wrap;html=1;align=center;fontStyle=4;" parent="1" vertex="1">
                    <mxGeometry x="779.37" y="710" width="100" height="40" as="geometry"/>
                </mxCell>
                <mxCell id="104" style="edgeStyle=none;rounded=1;html=1;entryX=0.75;entryY=1;entryDx=0;entryDy=0;strokeColor=default;endArrow=none;endFill=0;" parent="1" source="103" target="98" edge="1">
                    <mxGeometry relative="1" as="geometry"/>
                </mxCell>
                <mxCell id="103" value="name" style="ellipse;whiteSpace=wrap;html=1;align=center;" parent="1" vertex="1">
                    <mxGeometry x="931" y="710" width="100" height="40" as="geometry"/>
                </mxCell>
                <mxCell id="105" value="" style="endArrow=none;html=1;rounded=0;entryX=0;entryY=0.5;entryDx=0;entryDy=0;exitX=1;exitY=0.5;exitDx=0;exitDy=0;shape=link;" parent="1" source="63" target="21" edge="1">
                    <mxGeometry relative="1" as="geometry">
                        <mxPoint x="290" y="270" as="sourcePoint"/>
                        <mxPoint x="450" y="270" as="targetPoint"/>
                    </mxGeometry>
                </mxCell>
                <mxCell id="106" value="1" style="resizable=0;html=1;align=right;verticalAlign=bottom;" parent="105" connectable="0" vertex="1">
                    <mxGeometry x="1" relative="1" as="geometry"/>
                </mxCell>
                <mxCell id="107" value="" style="endArrow=none;html=1;rounded=0;entryX=1;entryY=0.5;entryDx=0;entryDy=0;exitX=0;exitY=0.5;exitDx=0;exitDy=0;" parent="1" source="63" target="2" edge="1">
                    <mxGeometry relative="1" as="geometry">
                        <mxPoint x="380" y="280" as="sourcePoint"/>
                        <mxPoint x="330" y="280" as="targetPoint"/>
                    </mxGeometry>
                </mxCell>
                <mxCell id="108" value="1" style="resizable=0;html=1;align=right;verticalAlign=bottom;" parent="107" connectable="0" vertex="1">
                    <mxGeometry x="1" relative="1" as="geometry"/>
                </mxCell>
                <mxCell id="109" value="" style="endArrow=none;html=1;rounded=0;entryX=1;entryY=0.75;entryDx=0;entryDy=0;exitX=0;exitY=0.5;exitDx=0;exitDy=0;" parent="1" source="78" target="24" edge="1">
                    <mxGeometry relative="1" as="geometry">
                        <mxPoint x="1190" y="229.23000000000002" as="sourcePoint"/>
                        <mxPoint x="1261" y="259.23" as="targetPoint"/>
                    </mxGeometry>
                </mxCell>
                <mxCell id="110" value="N" style="resizable=0;html=1;align=right;verticalAlign=bottom;" parent="109" connectable="0" vertex="1">
                    <mxGeometry x="1" relative="1" as="geometry"/>
                </mxCell>
                <mxCell id="111" value="" style="endArrow=none;html=1;rounded=0;entryX=0;entryY=0.5;entryDx=0;entryDy=0;exitX=1;exitY=0.5;exitDx=0;exitDy=0;" parent="1" source="78" target="71" edge="1">
                    <mxGeometry relative="1" as="geometry">
                        <mxPoint x="1129.9975" y="316.73" as="sourcePoint"/>
                        <mxPoint x="1209.75" y="349.23" as="targetPoint"/>
                    </mxGeometry>
                </mxCell>
                <mxCell id="112" value="N" style="resizable=0;html=1;align=right;verticalAlign=bottom;" parent="111" connectable="0" vertex="1">
                    <mxGeometry x="1" relative="1" as="geometry"/>
                </mxCell>
                <mxCell id="117" value="" style="endArrow=none;html=1;rounded=0;entryX=0.5;entryY=0;entryDx=0;entryDy=0;exitX=0.5;exitY=1;exitDx=0;exitDy=0;shape=link;" parent="1" source="85" target="84" edge="1">
                    <mxGeometry relative="1" as="geometry">
                        <mxPoint x="800" y="390" as="sourcePoint"/>
                        <mxPoint x="960" y="390" as="targetPoint"/>
                    </mxGeometry>
                </mxCell>
                <mxCell id="118" value="1" style="resizable=0;html=1;align=right;verticalAlign=bottom;" parent="117" connectable="0" vertex="1">
                    <mxGeometry x="1" relative="1" as="geometry"/>
                </mxCell>
                <mxCell id="119" value="" style="endArrow=none;html=1;rounded=0;entryX=0.5;entryY=1;entryDx=0;entryDy=0;exitX=0.5;exitY=0;exitDx=0;exitDy=0;shape=link;" parent="1" source="85" target="48" edge="1">
                    <mxGeometry relative="1" as="geometry">
                        <mxPoint x="600" y="400" as="sourcePoint"/>
                        <mxPoint x="760" y="400" as="targetPoint"/>
                    </mxGeometry>
                </mxCell>
                <mxCell id="120" value="N" style="resizable=0;html=1;align=right;verticalAlign=bottom;" parent="119" connectable="0" vertex="1">
                    <mxGeometry x="1" relative="1" as="geometry"/>
                </mxCell>
                <mxCell id="121" value="" style="endArrow=none;html=1;rounded=0;entryX=0.5;entryY=1;entryDx=0;entryDy=0;exitX=0.5;exitY=0;exitDx=0;exitDy=0;shape=link;" parent="1" source="91" target="51" edge="1">
                    <mxGeometry relative="1" as="geometry">
                        <mxPoint x="840" y="390" as="sourcePoint"/>
                        <mxPoint x="1000" y="390" as="targetPoint"/>
                    </mxGeometry>
                </mxCell>
                <mxCell id="122" value="N" style="resizable=0;html=1;align=right;verticalAlign=bottom;" parent="121" connectable="0" vertex="1">
                    <mxGeometry x="1" relative="1" as="geometry"/>
                </mxCell>
                <mxCell id="123" value="" style="endArrow=none;html=1;rounded=0;entryX=0.5;entryY=0;entryDx=0;entryDy=0;exitX=0.5;exitY=1;exitDx=0;exitDy=0;shape=link;" parent="1" source="91" target="93" edge="1">
                    <mxGeometry relative="1" as="geometry">
                        <mxPoint x="570" y="470" as="sourcePoint"/>
                        <mxPoint x="730" y="470" as="targetPoint"/>
                    </mxGeometry>
                </mxCell>
                <mxCell id="124" value="1" style="resizable=0;html=1;align=right;verticalAlign=bottom;" parent="123" connectable="0" vertex="1">
                    <mxGeometry x="1" relative="1" as="geometry"/>
                </mxCell>
                <mxCell id="125" value="name" style="ellipse;whiteSpace=wrap;html=1;align=center;" parent="1" vertex="1">
                    <mxGeometry x="1140" y="280" width="100" height="40" as="geometry"/>
                </mxCell>
                <mxCell id="127" value="" style="endArrow=none;html=1;rounded=0;exitX=0.5;exitY=0;exitDx=0;exitDy=0;entryX=0.5;entryY=1;entryDx=0;entryDy=0;" parent="1" source="125" target="71" edge="1">
                    <mxGeometry relative="1" as="geometry">
                        <mxPoint x="1280" y="59.230000000000004" as="sourcePoint"/>
                        <mxPoint x="1440" y="59.230000000000004" as="targetPoint"/>
                    </mxGeometry>
                </mxCell>
                <mxCell id="129" value="- MenuItem is either a food or drink.&lt;br&gt;- MenuCategory is a category on the menu, such as Starter, Main, Dessert.&lt;br&gt;- Session refers to a connection between user and the server." style="shape=note;size=20;whiteSpace=wrap;html=1;align=left;" parent="1" vertex="1">
                    <mxGeometry x="30" y="670" width="338" height="190" as="geometry"/>
                </mxCell>
                <mxCell id="130" value="&lt;span style=&quot;border-bottom: 1px dotted&quot;&gt;token&lt;/span&gt;" style="ellipse;whiteSpace=wrap;html=1;align=center;" parent="1" vertex="1">
                    <mxGeometry x="334" y="80" width="100" height="40" as="geometry"/>
                </mxCell>
            </root>
        </mxGraphModel>
    </diagram>
</mxfile>